<svg width="300" height="400" viewBox="0 0 300 400" fill="none" xmlns="http://www.w3.org/2000/svg">
  <!-- Background -->
  <rect width="300" height="400" fill="#ffffff" />
  
  <!-- Header area -->
  <rect x="30" y="30" width="240" height="60" rx="0" fill="#ffffff" />
  <text x="150" y="55" font-family="Arial" font-size="18" font-weight="bold" fill="#333333" text-anchor="middle">Jane Doe</text>
  <text x="150" y="75" font-family="Arial" font-size="12" fill="#666666" text-anchor="middle">Full Stack Developer</text>
  
  <!-- Contact info -->
  <text x="150" y="95" font-family="Arial" font-size="10" fill="#666666" text-anchor="middle">jane.doe@example.com • San Francisco, CA</text>
  
  <!-- Experience Section -->
  <text x="30" y="125" font-family="Arial" font-size="14" font-weight="bold" fill="#333333">Experience</text>
  <rect x="30" y="135" width="240" height="1" fill="#dddddd" />
  
  <!-- Job 1 -->
  <text x="30" y="155" font-family="Arial" font-size="12" font-weight="bold" fill="#333333">Senior Frontend Developer</text>
  <text x="30" y="170" font-family="Arial" font-size="11" fill="#666666">Tech Solutions Inc.</text>
  <text x="240" y="170" font-family="Arial" font-size="10" fill="#666666" text-anchor="end">2020 - Present</text>
  <rect x="30" y="180" width="240" height="2" rx="1" fill="#f5f5f5" />
  <rect x="30" y="187" width="240" height="2" rx="1" fill="#f5f5f5" />
  <rect x="30" y="194" width="200" height="2" rx="1" fill="#f5f5f5" />
  
  <!-- Job 2 -->
  <text x="30" y="215" font-family="Arial" font-size="12" font-weight="bold" fill="#333333">Frontend Developer</text>
  <text x="30" y="230" font-family="Arial" font-size="11" fill="#666666">WebDev Agency</text>
  <text x="240" y="230" font-family="Arial" font-size="10" fill="#666666" text-anchor="end">2018 - 2020</text>
  <rect x="30" y="240" width="240" height="2" rx="1" fill="#f5f5f5" />
  <rect x="30" y="247" width="240" height="2" rx="1" fill="#f5f5f5" />
  <rect x="30" y="254" width="200" height="2" rx="1" fill="#f5f5f5" />
  
  <!-- Education Section -->
  <text x="30" y="285" font-family="Arial" font-size="14" font-weight="bold" fill="#333333">Education</text>
  <rect x="30" y="295" width="240" height="1" fill="#dddddd" />
  
  <!-- Education 1 -->
  <text x="30" y="315" font-family="Arial" font-size="12" font-weight="bold" fill="#333333">Bachelor of Science in Computer Science</text>
  <text x="30" y="330" font-family="Arial" font-size="11" fill="#666666">University of Technology</text>
  <text x="240" y="330" font-family="Arial" font-size="10" fill="#666666" text-anchor="end">2014 - 2018</text>
  <rect x="30" y="340" width="240" height="2" rx="1" fill="#f5f5f5" />
  <rect x="30" y="347" width="200" height="2" rx="1" fill="#f5f5f5" />
</svg> 