<svg width="300" height="400" viewBox="0 0 300 400" fill="none" xmlns="http://www.w3.org/2000/svg">
  <!-- Background -->
  <rect width="300" height="400" fill="#ffffff" />
  
  <!-- Navy blue accent at top -->
  <rect x="0" y="0" width="300" height="5" fill="#1e3a5f" />
  
  <!-- Header area -->
  <text x="150" y="40" font-family="Arial" font-size="18" font-weight="bold" fill="#1e3a5f" text-anchor="middle">Jane Doe</text>
  <text x="150" y="60" font-family="Arial" font-size="12" fill="#666666" text-anchor="middle">Chief Technology Officer</text>
  
  <!-- Contact info -->
  <text x="150" y="80" font-family="Arial" font-size="10" fill="#666666" text-anchor="middle">jane.doe@example.com • San Francisco, CA</text>
  
  <!-- Executive Summary Section -->
  <text x="30" y="110" font-family="Arial" font-size="14" font-weight="bold" fill="#1e3a5f">Executive Summary</text>
  <rect x="30" y="120" width="240" height="1" fill="#c9a959" />
  
  <!-- Summary content -->
  <rect x="30" y="130" width="240" height="2" rx="1" fill="#f5f5f5" />
  <rect x="30" y="137" width="240" height="2" rx="1" fill="#f5f5f5" />
  <rect x="30" y="144" width="240" height="2" rx="1" fill="#f5f5f5" />
  <rect x="30" y="151" width="200" height="2" rx="1" fill="#f5f5f5" />
  
  <!-- Experience Section -->
  <text x="30" y="180" font-family="Arial" font-size="14" font-weight="bold" fill="#1e3a5f">Leadership Experience</text>
  <rect x="30" y="190" width="240" height="1" fill="#c9a959" />
  
  <!-- Job 1 -->
  <text x="30" y="210" font-family="Arial" font-size="12" font-weight="bold" fill="#333333">Chief Technology Officer</text>
  <text x="30" y="225" font-family="Arial" font-size="11" fill="#666666">Enterprise Solutions Inc.</text>
  <text x="240" y="225" font-family="Arial" font-size="10" fill="#666666" text-anchor="end">2020 - Present</text>
  <rect x="30" y="235" width="240" height="2" rx="1" fill="#f5f5f5" />
  <rect x="30" y="242" width="240" height="2" rx="1" fill="#f5f5f5" />
  <rect x="30" y="249" width="200" height="2" rx="1" fill="#f5f5f5" />
  
  <!-- Job 2 -->
  <text x="30" y="270" font-family="Arial" font-size="12" font-weight="bold" fill="#333333">VP of Engineering</text>
  <text x="30" y="285" font-family="Arial" font-size="11" fill="#666666">Tech Innovations Corp.</text>
  <text x="240" y="285" font-family="Arial" font-size="10" fill="#666666" text-anchor="end">2015 - 2020</text>
  <rect x="30" y="295" width="240" height="2" rx="1" fill="#f5f5f5" />
  <rect x="30" y="302" width="240" height="2" rx="1" fill="#f5f5f5" />
  <rect x="30" y="309" width="200" height="2" rx="1" fill="#f5f5f5" />
  
  <!-- Education Section -->
  <text x="30" y="340" font-family="Arial" font-size="14" font-weight="bold" fill="#1e3a5f">Education</text>
  <rect x="30" y="350" width="240" height="1" fill="#c9a959" />
  
  <!-- Education 1 -->
  <text x="30" y="370" font-family="Arial" font-size="12" font-weight="bold" fill="#333333">MBA, Business Administration</text>
  <text x="30" y="385" font-family="Arial" font-size="11" fill="#666666">Harvard Business School</text>
</svg> 