<svg width="300" height="400" viewBox="0 0 300 400" fill="none" xmlns="http://www.w3.org/2000/svg">
  <!-- Background -->
  <rect width="300" height="400" fill="#ffffff" />
  
  <!-- Header area -->
  <text x="150" y="40" font-family="Helvetica, sans-serif" font-size="18" font-weight="bold" fill="#333333" text-anchor="middle">Jane Doe</text>
  <text x="150" y="60" font-family="Helvetica, sans-serif" font-size="12" fill="#666666" text-anchor="middle">Full Stack Developer</text>
  
  <!-- Contact info -->
  <text x="150" y="80" font-family="Helvetica, sans-serif" font-size="10" fill="#666666" text-anchor="middle">jane.doe@example.com • San Francisco, CA</text>
  
  <!-- Experience Section -->
  <text x="30" y="120" font-family="Helvetica, sans-serif" font-size="14" font-weight="bold" fill="#333333">Experience</text>
  <rect x="30" y="130" width="240" height="1" fill="#dddddd" />
  
  <!-- Job 1 -->
  <text x="30" y="150" font-family="Helvetica, sans-serif" font-size="12" font-weight="bold" fill="#333333">Senior Frontend Developer</text>
  <text x="30" y="165" font-family="Helvetica, sans-serif" font-size="11" fill="#666666">Tech Solutions Inc.</text>
  <text x="240" y="165" font-family="Helvetica, sans-serif" font-size="10" fill="#666666" text-anchor="end">2020 - Present</text>
  <rect x="30" y="175" width="240" height="2" rx="1" fill="#f5f5f5" />
  <rect x="30" y="182" width="240" height="2" rx="1" fill="#f5f5f5" />
  <rect x="30" y="189" width="200" height="2" rx="1" fill="#f5f5f5" />
  
  <!-- Job 2 -->
  <text x="30" y="210" font-family="Helvetica, sans-serif" font-size="12" font-weight="bold" fill="#333333">Frontend Developer</text>
  <text x="30" y="225" font-family="Helvetica, sans-serif" font-size="11" fill="#666666">WebDev Agency</text>
  <text x="240" y="225" font-family="Helvetica, sans-serif" font-size="10" fill="#666666" text-anchor="end">2018 - 2020</text>
  <rect x="30" y="235" width="240" height="2" rx="1" fill="#f5f5f5" />
  <rect x="30" y="242" width="240" height="2" rx="1" fill="#f5f5f5" />
  <rect x="30" y="249" width="200" height="2" rx="1" fill="#f5f5f5" />
  
  <!-- Education Section -->
  <text x="30" y="280" font-family="Helvetica, sans-serif" font-size="14" font-weight="bold" fill="#333333">Education</text>
  <rect x="30" y="290" width="240" height="1" fill="#dddddd" />
  
  <!-- Education 1 -->
  <text x="30" y="310" font-family="Helvetica, sans-serif" font-size="12" font-weight="bold" fill="#333333">Bachelor of Science in Computer Science</text>
  <text x="30" y="325" font-family="Helvetica, sans-serif" font-size="11" fill="#666666">University of Technology</text>
  <text x="240" y="325" font-family="Helvetica, sans-serif" font-size="10" fill="#666666" text-anchor="end">2014 - 2018</text>
  <rect x="30" y="335" width="240" height="2" rx="1" fill="#f5f5f5" />
  <rect x="30" y="342" width="200" height="2" rx="1" fill="#f5f5f5" />
  
  <!-- Skills Section -->
  <text x="30" y="370" font-family="Helvetica, sans-serif" font-size="14" font-weight="bold" fill="#333333">Skills</text>
  <rect x="30" y="380" width="240" height="1" fill="#dddddd" />
</svg> 