<svg width="300" height="400" viewBox="0 0 300 400" fill="none" xmlns="http://www.w3.org/2000/svg">
  <!-- Background -->
  <rect width="300" height="400" fill="#ffffff" />
  
  <!-- Blue accent at top -->
  <rect x="0" y="0" width="300" height="5" fill="#2563eb" />
  
  <!-- Header area -->
  <text x="150" y="40" font-family="Arial" font-size="18" font-weight="bold" fill="#333333" text-anchor="middle">Jane Doe</text>
  <text x="150" y="60" font-family="Arial" font-size="12" fill="#666666" text-anchor="middle">Full Stack Developer</text>
  
  <!-- Contact info -->
  <text x="150" y="80" font-family="Arial" font-size="10" fill="#666666" text-anchor="middle">jane.doe@example.com • San Francisco, CA</text>
  
  <!-- Skills Section -->
  <text x="30" y="110" font-family="Arial" font-size="14" font-weight="bold" fill="#333333">Skills</text>
  <rect x="30" y="120" width="240" height="1" fill="#dddddd" />
  
  <!-- Skills content -->
  <rect x="30" y="135" width="70" height="20" rx="10" fill="#f0f4ff" />
  <text x="65" y="148" font-family="Arial" font-size="10" fill="#2563eb" text-anchor="middle">React</text>
  
  <rect x="110" y="135" width="70" height="20" rx="10" fill="#f0f4ff" />
  <text x="145" y="148" font-family="Arial" font-size="10" fill="#2563eb" text-anchor="middle">TypeScript</text>
  
  <rect x="190" y="135" width="70" height="20" rx="10" fill="#f0f4ff" />
  <text x="225" y="148" font-family="Arial" font-size="10" fill="#2563eb" text-anchor="middle">Node.js</text>
  
  <rect x="30" y="160" width="70" height="20" rx="10" fill="#f0f4ff" />
  <text x="65" y="173" font-family="Arial" font-size="10" fill="#2563eb" text-anchor="middle">GraphQL</text>
  
  <rect x="110" y="160" width="70" height="20" rx="10" fill="#f0f4ff" />
  <text x="145" y="173" font-family="Arial" font-size="10" fill="#2563eb" text-anchor="middle">MongoDB</text>
  
  <!-- Experience Section -->
  <text x="30" y="205" font-family="Arial" font-size="14" font-weight="bold" fill="#333333">Experience</text>
  <rect x="30" y="215" width="240" height="1" fill="#dddddd" />
  
  <!-- Job 1 -->
  <text x="30" y="235" font-family="Arial" font-size="12" font-weight="bold" fill="#333333">Senior Frontend Developer</text>
  <text x="30" y="250" font-family="Arial" font-size="11" fill="#666666">Tech Solutions Inc.</text>
  <text x="240" y="250" font-family="Arial" font-size="10" fill="#666666" text-anchor="end">2020 - Present</text>
  <rect x="30" y="260" width="240" height="2" rx="1" fill="#f5f5f5" />
  <rect x="30" y="267" width="240" height="2" rx="1" fill="#f5f5f5" />
  <rect x="30" y="274" width="200" height="2" rx="1" fill="#f5f5f5" />
  
  <!-- Education Section -->
  <text x="30" y="305" font-family="Arial" font-size="14" font-weight="bold" fill="#333333">Education</text>
  <rect x="30" y="315" width="240" height="1" fill="#dddddd" />
  
  <!-- Education 1 -->
  <text x="30" y="335" font-family="Arial" font-size="12" font-weight="bold" fill="#333333">Bachelor of Science in Computer Science</text>
  <text x="30" y="350" font-family="Arial" font-size="11" fill="#666666">University of Technology</text>
  <text x="240" y="350" font-family="Arial" font-size="10" fill="#666666" text-anchor="end">2014 - 2018</text>
  <rect x="30" y="360" width="240" height="2" rx="1" fill="#f5f5f5" />
  <rect x="30" y="367" width="200" height="2" rx="1" fill="#f5f5f5" />
</svg> 