<svg width="300" height="400" viewBox="0 0 300 400" fill="none" xmlns="http://www.w3.org/2000/svg">
  <!-- Background -->
  <rect width="300" height="400" fill="#ffffff" />
  
  <!-- Accent at top (now gray) -->
  <rect x="0" y="0" width="300" height="5" fill="#333333" />
  
  <!-- Header area -->
  <text x="150" y="40" font-family="Verdana, sans-serif" font-size="18" font-weight="bold" fill="#333333" text-anchor="middle">Jane Doe</text>
  <text x="150" y="60" font-family="Verdana, sans-serif" font-size="12" fill="#666666" text-anchor="middle">Computer Science Student</text>
  
  <!-- Contact info -->
  <text x="150" y="80" font-family="Verdana, sans-serif" font-size="10" fill="#666666" text-anchor="middle">jane.doe@example.com • San Francisco, CA</text>
  
  <!-- Education Section -->
  <text x="30" y="110" font-family="Verdana, sans-serif" font-size="14" font-weight="bold" fill="#333333">Education</text>
  <rect x="30" y="120" width="240" height="1" fill="#dddddd" />
  
  <!-- Education 1 -->
  <text x="30" y="140" font-family="Verdana, sans-serif" font-size="12" font-weight="bold" fill="#333333">Bachelor of Science in Computer Science</text>
  <text x="30" y="155" font-family="Verdana, sans-serif" font-size="11" fill="#666666">University of Technology</text>
  <text x="240" y="155" font-family="Verdana, sans-serif" font-size="10" fill="#666666" text-anchor="end">2020 - 2024</text>
  <rect x="30" y="165" width="240" height="2" rx="1" fill="#f5f5f5" />
  <rect x="30" y="172" width="240" height="2" rx="1" fill="#f5f5f5" />
  <rect x="30" y="179" width="200" height="2" rx="1" fill="#f5f5f5" />
  
  <!-- Projects Section -->
  <text x="30" y="205" font-family="Verdana, sans-serif" font-size="14" font-weight="bold" fill="#333333">Projects</text>
  <rect x="30" y="215" width="240" height="1" fill="#dddddd" />
  
  <!-- Project 1 -->
  <text x="30" y="235" font-family="Verdana, sans-serif" font-size="12" font-weight="bold" fill="#333333">Student Portal Application</text>
  <text x="30" y="250" font-family="Verdana, sans-serif" font-size="11" fill="#666666">React, Node.js, MongoDB</text>
  <text x="240" y="250" font-family="Verdana, sans-serif" font-size="10" fill="#666666" text-anchor="end">2023</text>
  <rect x="30" y="260" width="240" height="2" rx="1" fill="#f5f5f5" />
  <rect x="30" y="267" width="240" height="2" rx="1" fill="#f5f5f5" />
  <rect x="30" y="274" width="200" height="2" rx="1" fill="#f5f5f5" />
  
  <!-- Experience Section -->
  <text x="30" y="305" font-family="Verdana, sans-serif" font-size="14" font-weight="bold" fill="#333333">Experience</text>
  <rect x="30" y="315" width="240" height="1" fill="#dddddd" />
  
  <!-- Job 1 -->
  <text x="30" y="335" font-family="Verdana, sans-serif" font-size="12" font-weight="bold" fill="#333333">Web Development Intern</text>
  <text x="30" y="350" font-family="Verdana, sans-serif" font-size="11" fill="#666666">Tech Solutions Inc.</text>
  <text x="240" y="350" font-family="Verdana, sans-serif" font-size="10" fill="#666666" text-anchor="end">Summer 2023</text>
  <rect x="30" y="360" width="240" height="2" rx="1" fill="#f5f5f5" />
  <rect x="30" y="367" width="200" height="2" rx="1" fill="#f5f5f5" />
</svg> 